<svg xmlns="http://www.w3.org/2000/svg" xmlns:xlink="http://www.w3.org/1999/xlink" width="1920" zoomAndPan="magnify" viewBox="0 0 1440 809.999993" height="1080" preserveAspectRatio="xMidYMid meet" version="1.0"><defs><clipPath id="53b52c3e43"><path d="M 26.367188 119 L 1413.867188 119 L 1413.867188 689 L 26.367188 689 Z M 26.367188 119 " clip-rule="nonzero"/></clipPath></defs><g clip-path="url(#53b52c3e43)"><path fill="#ffffff" d="M 1277.0625 119.359375 L 163.175781 119.359375 C 87.972656 119.359375 26.367188 180.957031 26.367188 256.148438 L 26.367188 449.535156 C 26.367188 501.695312 56.0625 547.476562 99.351562 570.503906 C 96.851562 624.332031 74.929688 656.238281 64.386719 677.601562 C 61.332031 683.707031 67.4375 690.644531 74.097656 688.421875 C 148.191406 663.175781 197.585938 622.945312 230.886719 586.597656 L 1277.0625 586.597656 C 1352.261719 586.597656 1413.867188 525 1413.867188 449.8125 L 1413.867188 256.425781 C 1413.867188 180.957031 1352.261719 119.359375 1277.0625 119.359375 Z M 1277.0625 119.359375 " fill-opacity="1" fill-rule="nonzero"/></g></svg>