<svg xmlns="http://www.w3.org/2000/svg" xmlns:xlink="http://www.w3.org/1999/xlink" width="1080" zoomAndPan="magnify" viewBox="0 0 810 809.999993" height="1080" preserveAspectRatio="xMidYMid meet" version="1.0"><defs><clipPath id="ffa772f181"><path d="M 581 404 L 784.574219 404 L 784.574219 552 L 581 552 Z M 581 404 " clip-rule="nonzero"/></clipPath><clipPath id="3ae09968f3"><path d="M 25.574219 403 L 229 403 L 229 552 L 25.574219 552 Z M 25.574219 403 " clip-rule="nonzero"/></clipPath><clipPath id="e04a0d83c5"><path d="M 296 173.089844 L 513 173.089844 L 513 390 L 296 390 Z M 296 173.089844 " clip-rule="nonzero"/></clipPath><clipPath id="7de2e0dfe4"><path d="M 242 403 L 567 403 L 567 578.839844 L 242 578.839844 Z M 242 403 " clip-rule="nonzero"/></clipPath></defs><path fill="#000000" d="M 647.925781 389.484375 C 595.160156 389.484375 553.21875 347.574219 553.21875 294.851562 C 553.21875 242.125 595.160156 200.21875 647.925781 200.21875 C 700.691406 200.21875 742.632812 242.125 742.632812 294.851562 C 742.632812 347.574219 700.691406 389.484375 647.925781 389.484375 Z M 647.925781 227.257812 C 610.042969 227.257812 580.277344 256.996094 580.277344 294.851562 C 580.277344 332.703125 610.042969 362.445312 647.925781 362.445312 C 685.808594 362.445312 715.574219 332.703125 715.574219 294.851562 C 715.574219 256.996094 685.808594 227.257812 647.925781 227.257812 Z M 647.925781 227.257812 " fill-opacity="1" fill-rule="nonzero"/><g clip-path="url(#ffa772f181)"><path fill="#000000" d="M 783.21875 551.710938 L 622.21875 551.710938 C 614.101562 551.710938 608.691406 546.300781 608.691406 538.191406 C 608.691406 530.078125 614.101562 524.671875 622.21875 524.671875 L 756.160156 524.671875 C 749.398438 471.949219 703.398438 430.039062 649.277344 430.039062 C 631.691406 430.039062 615.457031 434.09375 600.574219 442.207031 C 593.808594 444.910156 585.691406 443.558594 582.984375 436.796875 C 580.277344 430.039062 581.632812 421.929688 588.398438 419.222656 C 607.339844 409.761719 627.632812 404.351562 649.277344 404.351562 C 723.691406 404.351562 784.574219 465.1875 784.574219 539.542969 L 784.574219 551.710938 Z M 783.21875 551.710938 " fill-opacity="1" fill-rule="nonzero"/></g><path fill="#000000" d="M 160.867188 389.484375 C 108.101562 389.484375 66.160156 347.574219 66.160156 294.851562 C 66.160156 242.125 108.101562 200.21875 160.867188 200.21875 C 213.632812 200.21875 255.574219 242.125 255.574219 294.851562 C 255.574219 347.574219 213.632812 389.484375 160.867188 389.484375 Z M 160.867188 227.257812 C 122.984375 227.257812 93.21875 256.996094 93.21875 294.851562 C 93.21875 332.703125 122.984375 362.445312 160.867188 362.445312 C 198.75 362.445312 228.515625 332.703125 228.515625 294.851562 C 228.515625 256.996094 198.75 227.257812 160.867188 227.257812 Z M 160.867188 227.257812 " fill-opacity="1" fill-rule="nonzero"/><g clip-path="url(#3ae09968f3)"><path fill="#000000" d="M 186.574219 551.710938 L 25.574219 551.710938 L 25.574219 538.191406 C 25.574219 463.835938 86.457031 403 160.867188 403 C 182.515625 403 202.808594 407.058594 220.398438 416.519531 C 227.160156 419.222656 229.867188 427.335938 227.160156 434.09375 C 224.457031 440.855469 216.339844 443.558594 209.574219 440.855469 C 193.339844 434.09375 177.101562 430.039062 160.867188 430.039062 C 105.398438 430.039062 60.75 471.949219 53.984375 524.671875 L 187.925781 524.671875 C 196.042969 524.671875 201.457031 530.078125 201.457031 538.191406 C 201.457031 546.300781 194.691406 551.710938 186.574219 551.710938 Z M 186.574219 551.710938 " fill-opacity="1" fill-rule="nonzero"/></g><g clip-path="url(#e04a0d83c5)"><path fill="#000000" d="M 404.398438 389.484375 C 344.867188 389.484375 296.160156 340.816406 296.160156 281.332031 C 296.160156 221.847656 344.867188 173.179688 404.398438 173.179688 C 463.925781 173.179688 512.632812 221.847656 512.632812 281.332031 C 512.632812 340.816406 463.925781 389.484375 404.398438 389.484375 Z M 404.398438 200.21875 C 359.75 200.21875 323.21875 236.71875 323.21875 281.332031 C 323.21875 325.945312 359.75 362.445312 404.398438 362.445312 C 449.042969 362.445312 485.574219 325.945312 485.574219 281.332031 C 485.574219 236.71875 449.042969 200.21875 404.398438 200.21875 Z M 404.398438 200.21875 " fill-opacity="1" fill-rule="nonzero"/></g><g clip-path="url(#7de2e0dfe4)"><path fill="#000000" d="M 566.75 578.746094 L 323.21875 578.746094 C 315.101562 578.746094 309.691406 573.339844 309.691406 565.226562 C 309.691406 557.117188 315.101562 551.710938 323.21875 551.710938 L 539.691406 551.710938 C 532.925781 484.113281 474.75 430.039062 404.398438 430.039062 C 329.984375 430.039062 269.101562 490.875 269.101562 565.226562 C 269.101562 573.339844 263.691406 578.746094 255.574219 578.746094 C 247.457031 578.746094 242.042969 573.339844 242.042969 565.226562 C 242.042969 476.003906 315.101562 403 404.398438 403 C 493.691406 403 566.75 476.003906 566.75 565.226562 Z M 566.75 578.746094 " fill-opacity="1" fill-rule="nonzero"/></g></svg>